<svg width="60" height="63" viewBox="0 0 60 63" fill="none" xmlns="http://www.w3.org/2000/svg">
<circle cx="30.373" cy="33.5" r="29.5" fill="#1B7050"/>
<circle cx="30.373" cy="29.5" r="29.5" fill="url(#paint0_linear_776_3864)"/>
<path fill-rule="evenodd" clip-rule="evenodd" d="M17.873 20.3435C17.873 18.4247 19.4286 16.8691 21.3474 16.8691H40.5257C42.4445 16.8691 44 18.4247 44 20.3435V39.6608C44 41.5796 42.4445 43.1351 40.5257 43.1351H21.3474C19.4286 43.1351 17.873 41.5796 17.873 39.6608V20.3435ZM30 27.002C30 26.4497 30.4041 26.002 30.9026 26.002H40.0974C40.5959 26.002 41 26.4497 41 27.002C41 27.5542 40.5959 28.002 40.0974 28.002H30.9026C30.4041 28.002 30 27.5542 30 27.002ZM30.9026 32.002C30.4041 32.002 30 32.4497 30 33.002C30 33.5542 30.4041 34.002 30.9026 34.002H40.0974C40.5959 34.002 41 33.5542 41 33.002C41 32.4497 40.5959 32.002 40.0974 32.002H30.9026ZM26.9604 24.6358C27.3512 25.0266 27.3512 25.6602 26.9604 26.0509L24.5214 28.4899C24.1307 28.8807 23.4971 28.8807 23.1064 28.4899L21.7931 27.1766C21.4023 26.7858 21.4023 26.1523 21.7931 25.7615C22.1838 25.3708 22.8174 25.3708 23.2081 25.7615L23.8139 26.3673L25.5454 24.6358C25.9361 24.2451 26.5697 24.2451 26.9604 24.6358ZM26.9604 33.0509C27.3512 32.6602 27.3512 32.0266 26.9604 31.6358C26.5697 31.2451 25.9361 31.2451 25.5454 31.6358L23.8139 33.3673L23.2081 32.7615C22.8174 32.3708 22.1838 32.3708 21.7931 32.7615C21.4023 33.1523 21.4023 33.7858 21.7931 34.1766L23.1064 35.4899C23.4971 35.8807 24.1307 35.8807 24.5214 35.4899L26.9604 33.0509Z" fill="white"/>
<defs>
<linearGradient id="paint0_linear_776_3864" x1="28.873" y1="12.5" x2="72.873" y2="73" gradientUnits="userSpaceOnUse">
<stop stop-color="#61D0A6"/>
<stop offset="1" stop-color="#326A55"/>
</linearGradient>
</defs>
</svg>
