<svg width="40" height="40" viewBox="0 0 40 40" fill="none" xmlns="http://www.w3.org/2000/svg">
<rect width="40" height="40" rx="20" fill="#F1ED50"/>
<path d="M26.5411 17.1524C26.542 18.1941 26.3058 19.2223 25.8503 20.1592C25.3949 21.096 24.7321 21.9169 23.9123 22.5596C23.6619 22.7536 23.459 23.0021 23.3189 23.2862C23.1788 23.5703 23.1052 23.8825 23.1036 24.1993V24.7149C23.1036 24.8972 23.0312 25.0721 22.9023 25.201C22.7733 25.33 22.5985 25.4024 22.4161 25.4024H16.9161C16.7338 25.4024 16.5589 25.33 16.43 25.201C16.3011 25.0721 16.2286 24.8972 16.2286 24.7149V24.1993C16.2283 23.8843 16.1561 23.5735 16.0176 23.2905C15.8792 23.0076 15.678 22.76 15.4294 22.5665C14.6121 21.928 13.9501 21.1126 13.4932 20.1816C13.0362 19.2506 12.7962 18.2282 12.7911 17.1911C12.7705 13.4648 15.7749 10.3633 19.5003 10.2774C20.417 10.2553 21.3288 10.4168 22.1822 10.7523C23.0355 11.0879 23.8131 11.5908 24.4692 12.2314C25.1253 12.8721 25.6466 13.6374 26.0024 14.4826C26.3582 15.3277 26.5414 16.2354 26.5411 17.1524Z" fill="#ABA700"/>
<path fill-rule="evenodd" clip-rule="evenodd" d="M25.8512 20.1572C26.3067 19.2204 26.5429 18.1921 26.542 17.1504C26.5423 16.2335 26.3591 15.3257 26.0033 14.4806C25.6475 13.6355 25.1262 12.8701 24.4701 12.2295C23.814 11.5889 23.0364 11.086 22.1831 10.7504C21.3297 10.4148 20.4179 10.2533 19.5012 10.2754C18.762 10.2925 18.0511 10.4283 17.3867 10.6641C18.255 10.6613 19.1164 10.8229 19.9253 11.141C20.7786 11.4766 21.5562 11.9795 22.2123 12.6201C22.8684 13.2607 23.3897 14.0261 23.7455 14.8712C24.1013 15.7163 24.2845 16.6241 24.2842 17.5411C24.2851 18.5828 24.0489 19.611 23.5934 20.5478C23.138 21.4847 22.4752 22.3056 21.6554 22.9482C21.405 23.1423 21.2021 23.3908 21.062 23.6749C20.9219 23.9589 20.8483 24.2712 20.8467 24.5879V25.1036C20.8467 25.2073 20.8233 25.3086 20.7793 25.4004H22.417C22.5994 25.4004 22.7742 25.328 22.9032 25.1991C23.0321 25.0701 23.1045 24.8953 23.1045 24.7129V24.1973C23.1061 23.8806 23.1797 23.5683 23.3198 23.2842C23.4599 23.0001 23.6628 22.7517 23.9132 22.5576C24.733 21.9149 25.3958 21.0941 25.8512 20.1572Z" fill="#F1ED50"/>
<path d="M23.7911 28.1526C23.7911 28.3349 23.7187 28.5098 23.5898 28.6387C23.4608 28.7677 23.286 28.8401 23.1036 28.8401H16.2286C16.0463 28.8401 15.8714 28.7677 15.7425 28.6387C15.6136 28.5098 15.5411 28.3349 15.5411 28.1526C15.5411 27.9702 15.6136 27.7954 15.7425 27.6664C15.8714 27.5375 16.0463 27.4651 16.2286 27.4651H23.1036C23.286 27.4651 23.4608 27.5375 23.5898 27.6664C23.7187 27.7954 23.7911 27.9702 23.7911 28.1526ZM27.2286 17.1526C27.2316 18.2987 26.9727 19.4303 26.4717 20.4611C25.9706 21.4919 25.2407 22.3946 24.3377 23.1003C24.1688 23.2298 24.0318 23.3961 23.9371 23.5866C23.8423 23.7771 23.7924 23.9867 23.7911 24.1995V24.7151C23.7911 25.0798 23.6463 25.4295 23.3884 25.6874C23.1305 25.9452 22.7808 26.0901 22.4161 26.0901H16.9161C16.5515 26.0901 16.2017 25.9452 15.9439 25.6874C15.686 25.4295 15.5411 25.0798 15.5411 24.7151V24.1995C15.541 23.9893 15.4927 23.7819 15.3998 23.5933C15.307 23.4047 15.1722 23.2398 15.0057 23.1115C14.1049 22.4099 13.3755 21.5127 12.8728 20.4876C12.37 19.4625 12.1069 18.3364 12.1036 17.1947C12.0813 13.0989 15.3916 9.68805 19.4839 9.59009C20.4923 9.56579 21.4953 9.74344 22.434 10.1126C23.3726 10.4818 24.228 11.035 24.9496 11.7396C25.6713 12.4443 26.2447 13.2862 26.636 14.2158C27.0274 15.1454 27.2289 16.1439 27.2286 17.1526ZM25.8536 17.1526C25.8539 16.3273 25.689 15.5103 25.3687 14.7497C25.0485 13.9891 24.5793 13.3002 23.9888 12.7236C23.3983 12.1471 22.6984 11.6945 21.9304 11.3925C21.1623 11.0904 20.3416 10.9451 19.5166 10.9651C16.165 11.0441 13.4606 13.8345 13.4786 17.1861C13.4818 18.1199 13.6972 19.0407 14.1088 19.8789C14.5203 20.7172 15.1171 21.4508 15.8539 22.0244C16.1852 22.2819 16.4531 22.6118 16.6372 22.9888C16.8213 23.3658 16.9167 23.7799 16.9161 24.1995V24.7151H22.4161V24.1995C22.4171 23.7787 22.5141 23.3637 22.6998 22.9862C22.8856 22.6086 23.1551 22.2785 23.4878 22.0209C24.2269 21.4433 24.8243 20.7044 25.2343 19.8607C25.6444 19.0169 25.8562 18.0907 25.8536 17.1526Z" fill="black"/>
<path d="M19.666 20.0459C19.9014 20.0459 20.1275 20.1392 20.2939 20.3057L20.3525 20.3711C20.4819 20.529 20.5537 20.7276 20.5537 20.9336C20.5537 21.0651 20.5244 21.1945 20.4688 21.3125L20.4043 21.4268C20.3068 21.5727 20.168 21.6867 20.0059 21.7539C19.8843 21.8043 19.7534 21.8266 19.623 21.8203L19.4932 21.8037C19.364 21.778 19.2426 21.7242 19.1377 21.6465L19.0381 21.5615C18.914 21.4374 18.8301 21.2786 18.7959 21.1064C18.7617 20.9344 18.7786 20.7559 18.8457 20.5938L18.9053 20.4766C18.9724 20.3648 19.0635 20.2683 19.1729 20.1953C19.3188 20.0978 19.4905 20.0459 19.666 20.0459ZM19.666 13.5146C21.2669 13.5146 22.6162 14.6595 22.6162 16.1211C22.6162 17.4132 21.5588 18.4563 20.21 18.6797V18.8711C20.21 19.0153 20.1528 19.1539 20.0508 19.2559C19.9488 19.3578 19.8102 19.415 19.666 19.415C19.5578 19.415 19.453 19.3824 19.3643 19.3232L19.2812 19.2559C19.1793 19.1539 19.1221 19.0153 19.1221 18.8711V18.1836C19.1221 18.0394 19.1793 17.9008 19.2812 17.7988L19.3643 17.7314C19.453 17.6722 19.5578 17.6396 19.666 17.6396C20.7286 17.6396 21.5283 16.9259 21.5283 16.1211C21.5283 15.3163 20.7286 14.6025 19.666 14.6025C18.6034 14.6025 17.8037 15.3163 17.8037 16.1211C17.8037 16.2293 17.7711 16.3341 17.7119 16.4229L17.6445 16.5059C17.5426 16.6078 17.404 16.665 17.2598 16.665C17.1515 16.665 17.0467 16.6324 16.958 16.5732L16.875 16.5059C16.773 16.4039 16.7158 16.2653 16.7158 16.1211L16.7197 15.9854C16.8002 14.5892 18.115 13.5146 19.666 13.5146Z" fill="black" stroke="black" stroke-width="0.4"/>
</svg>
