<svg xmlns="http://www.w3.org/2000/svg" width="71" height="72" viewBox="0 0 71 72" fill="none">
  <path d="M70.1899 26.9668L68.7021 27.5126C68.0143 26.7687 67.0985 26.208 65.9995 25.9351L51.1671 22.3093C49.7654 21.9654 48.558 21.0869 47.7992 19.8646L39.7662 6.87874C37.6205 3.40987 32.5705 3.40987 30.4249 6.87874L22.3919 19.8646C21.6331 21.0907 20.4257 21.9691 19.0239 22.3093L4.1915 25.9351C3.09252 26.208 2.17671 26.7687 1.48518 27.5126L-0.00255398 26.9668V31.2431C-0.013768 32.4879 0.397413 33.7513 1.30201 34.8241L11.1666 46.4755C12.0974 47.5745 12.5609 48.9949 12.4525 50.4341L11.589 62.0556L11.3087 61.9845V65.973C11.3087 66.0328 11.3087 66.0889 11.3087 66.1449V66.2608C11.4283 70.0138 15.2897 72.6154 18.8781 71.1501L33.0116 65.3674C34.3461 64.8217 35.8375 64.8217 37.172 65.3674L51.3017 71.1501C54.8902 72.6192 58.7515 70.0138 58.8712 66.2608V61.9808L58.5908 62.0518L57.7273 50.4266C57.6189 48.9912 58.0824 47.5708 59.0132 46.468L68.8778 34.8167C69.7862 33.7476 70.1936 32.4804 70.1824 31.2356V26.9594L70.1899 26.9668Z" fill="url(#paint0_linear_455_947)"/>
  <path d="M39.7653 2.60218L47.7983 15.588C48.5571 16.8141 49.7645 17.6925 51.1662 18.0327L65.9987 21.6623C69.961 22.6305 71.5234 27.4338 68.8844 30.5476L59.0198 42.2027C58.089 43.3017 57.6255 44.7258 57.7339 46.1612L58.8628 61.3862C59.1656 65.4569 55.0837 68.4249 51.3045 66.8811L37.1748 61.0983C35.8404 60.5526 34.3452 60.5526 33.0144 61.0983L18.881 66.8811C15.1019 68.4249 11.02 65.4569 11.3227 61.3862L12.4554 46.1612C12.5638 44.7258 12.1002 43.3017 11.1695 42.2027L1.30113 30.5476C-1.33417 27.4338 0.224577 22.6342 4.18687 21.6623L19.0193 18.0327C20.4173 17.6925 21.6284 16.8141 22.3873 15.588L30.4202 2.60218C32.5696 -0.8667 37.6159 -0.8667 39.7615 2.60218H39.7653Z" fill="#F1ED50"/>
  <path d="M53.3907 66.5635C52.7777 66.5635 52.1684 66.4401 51.5815 66.2009L37.4518 60.4182C36.7005 60.1079 35.908 59.9547 35.0931 59.9547C34.2782 59.9547 33.4858 60.1117 32.7344 60.4182L18.6047 66.2009C18.0179 66.4401 17.4086 66.5635 16.7955 66.5635C15.4835 66.5635 14.2088 66.0028 13.3005 65.0234C12.3959 64.0515 11.9548 62.7806 12.0557 61.4424L13.1884 46.2137C13.3117 44.5765 12.7921 42.9804 11.7305 41.7281L1.86592 30.0767C-0.421744 27.3742 0.935154 23.2138 4.36665 22.3727L19.1991 18.7468C20.7952 18.3581 22.1484 17.3712 23.0156 15.977L31.0449 2.98736C31.9195 1.57439 33.4334 0.733337 35.0931 0.733337C36.7528 0.733337 38.2667 1.57813 39.1414 2.98736L47.1781 15.9732C48.0416 17.3712 49.3948 18.3543 50.9909 18.7431L65.8233 22.369C69.2623 23.21 70.608 27.3742 68.3278 30.073L58.4632 41.7244C57.4016 42.9804 56.882 44.5728 57.0054 46.21L58.138 61.4387C58.2352 62.7769 57.7941 64.0478 56.8932 65.0197C55.9849 65.9991 54.7102 66.5598 53.3944 66.5598L53.3907 66.5635Z" fill="url(#paint1_linear_455_947)"/>
  <defs>
    <linearGradient id="paint0_linear_455_947" x1="35.0935" y1="32.4005" x2="35.0935" y2="71.5665" gradientUnits="userSpaceOnUse">
      <stop stop-color="#9933FF"/>
      <stop offset="1" stop-color="#3E106C"/>
    </linearGradient>
    <linearGradient id="paint1_linear_455_947" x1="35.0931" y1="18.4702" x2="35.0931" y2="57.125" gradientUnits="userSpaceOnUse">
      <stop offset="0.18" stop-color="#9933FF"/>
      <stop offset="0.52" stop-color="#9933FF"/>
      <stop offset="1" stop-color="#5A00B4"/>
    </linearGradient>
  </defs>
</svg>