<svg width="60" height="63" viewBox="0 0 60 63" fill="none" xmlns="http://www.w3.org/2000/svg">
<circle cx="29.5" cy="33.5" r="29.5" fill="#C7B558"/>
<circle cx="29.625" cy="29.5" r="29.5" fill="#F5E383"/>
<g clip-path="url(#clip0_817_4152)">
<path d="M39 23.9102H36V20.9102C36 19.3189 35.3679 17.7927 34.2426 16.6675C33.1174 15.5423 31.5913 14.9102 30 14.9102C28.4087 14.9102 26.8826 15.5423 25.7574 16.6675C24.6321 17.7927 24 19.3189 24 20.9102V23.9102H21C20.4696 23.9102 19.9609 24.1209 19.5858 24.4959C19.2107 24.871 19 25.3797 19 25.9102V39.9102C19 40.4406 19.2107 40.9493 19.5858 41.3244C19.9609 41.6994 20.4696 41.9102 21 41.9102H39C39.5304 41.9102 40.0391 41.6994 40.4142 41.3244C40.7893 40.9493 41 40.4406 41 39.9102V25.9102C41 25.3797 40.7893 24.871 40.4142 24.4959C40.0391 24.1209 39.5304 23.9102 39 23.9102ZM26 20.9102C26 19.8493 26.4214 18.8319 27.1716 18.0817C27.9217 17.3316 28.9391 16.9102 30 16.9102C31.0609 16.9102 32.0783 17.3316 32.8284 18.0817C33.5786 18.8319 34 19.8493 34 20.9102V23.9102H26V20.9102Z" fill="#C7B558"/>
</g>
<defs>
<clipPath id="clip0_817_4152">
<rect width="32" height="32" fill="white" transform="translate(14 13.9102)"/>
</clipPath>
</defs>
</svg>
