<svg width="60" height="63" viewBox="0 0 60 63" fill="none" xmlns="http://www.w3.org/2000/svg">
<circle cx="29.5" cy="33.501" r="29.5" fill="#F79278"/>
<circle cx="29.625" cy="29.5" r="29.5" fill="#FABAA9"/>
<g clip-path="url(#clip0_817_4144)">
<path d="M39 23.9092H36V20.9092C36 19.3179 35.3679 17.7918 34.2426 16.6665C33.1174 15.5413 31.5913 14.9092 30 14.9092C28.4087 14.9092 26.8826 15.5413 25.7574 16.6665C24.6321 17.7918 24 19.3179 24 20.9092V23.9092H21C20.4696 23.9092 19.9609 24.1199 19.5858 24.495C19.2107 24.87 19 25.3787 19 25.9092V39.9092C19 40.4396 19.2107 40.9483 19.5858 41.3234C19.9609 41.6985 20.4696 41.9092 21 41.9092H39C39.5304 41.9092 40.0391 41.6985 40.4142 41.3234C40.7893 40.9483 41 40.4396 41 39.9092V25.9092C41 25.3787 40.7893 24.87 40.4142 24.495C40.0391 24.1199 39.5304 23.9092 39 23.9092ZM26 20.9092C26 19.8483 26.4214 18.8309 27.1716 18.0808C27.9217 17.3306 28.9391 16.9092 30 16.9092C31.0609 16.9092 32.0783 17.3306 32.8284 18.0808C33.5786 18.8309 34 19.8483 34 20.9092V23.9092H26V20.9092Z" fill="#E68A72"/>
</g>
<defs>
<clipPath id="clip0_817_4144">
<rect width="32" height="32" fill="white" transform="translate(14 13.9092)"/>
</clipPath>
</defs>
</svg>
