<svg width="60" height="63" viewBox="0 0 60 63" fill="none" xmlns="http://www.w3.org/2000/svg">
<circle cx="29.5" cy="33.501" r="29.5" fill="#F79278"/>
<circle cx="29.625" cy="29.5" r="29.5" fill="#FABAA9"/>
<path fill-rule="evenodd" clip-rule="evenodd" d="M16.125 19.4743C16.125 17.5555 17.6805 16 19.5993 16H38.7776C40.6965 16 42.252 17.5555 42.252 19.4743V38.7916C42.252 40.7104 40.6965 42.266 38.7777 42.266H19.5993C17.6805 42.266 16.125 40.7104 16.125 38.7916V19.4743ZM28.252 26.1328C28.252 25.5805 28.656 25.1328 29.1545 25.1328H38.3494C38.8479 25.1328 39.252 25.5805 39.252 26.1328C39.252 26.6851 38.8479 27.1328 38.3494 27.1328H29.1545C28.656 27.1328 28.252 26.6851 28.252 26.1328ZM29.1545 31.1328C28.656 31.1328 28.252 31.5805 28.252 32.1328C28.252 32.6851 28.656 33.1328 29.1545 33.1328H38.3494C38.8479 33.1328 39.252 32.6851 39.252 32.1328C39.252 31.5805 38.8479 31.1328 38.3494 31.1328H29.1545ZM25.2124 23.7667C25.6031 24.1575 25.6031 24.791 25.2124 25.1818L22.7734 27.6208C22.3826 28.0115 21.7491 28.0115 21.3583 27.6208L20.045 26.3075C19.6543 25.9167 19.6543 25.2831 20.045 24.8924C20.4358 24.5016 21.0693 24.5016 21.4601 24.8924L22.0659 25.4981L23.7973 23.7667C24.1881 23.3759 24.8216 23.3759 25.2124 23.7667ZM25.2124 32.1818C25.6031 31.791 25.6031 31.1575 25.2124 30.7667C24.8216 30.3759 24.1881 30.3759 23.7973 30.7667L22.0659 32.4981L21.4601 31.8924C21.0693 31.5016 20.4358 31.5016 20.045 31.8924C19.6543 32.2831 19.6543 32.9167 20.045 33.3075L21.3583 34.6208C21.7491 35.0115 22.3826 35.0115 22.7734 34.6208L25.2124 32.1818Z" fill="#E68A72"/>
</svg>
