<svg xmlns="http://www.w3.org/2000/svg" width="71" height="73" viewBox="0 0 71 73" fill="none">
  <path d="M70.1923 27.7122L68.7045 28.258C68.0167 27.5141 67.1009 26.9534 66.002 26.6805L51.1695 23.0546C49.7678 22.7107 48.5604 21.8323 47.8016 20.61L39.7686 7.62412C37.623 4.15524 32.5729 4.15524 30.4273 7.62412L22.3943 20.61C21.6355 21.836 20.4281 22.7145 19.0263 23.0546L4.19391 26.6805C3.09493 26.9534 2.17912 27.5141 1.48759 28.258L-0.000143088 27.7122V31.9885C-0.0113571 33.2332 0.399824 34.4967 1.30442 35.5695L11.169 47.2209C12.0998 48.3199 12.5633 49.7403 12.4549 51.1795L11.5914 62.8009L11.3111 62.7299V66.7184C11.3111 66.7782 11.3111 66.8343 11.3111 66.8903V67.0062C11.4307 70.7592 15.2921 73.3608 18.8806 71.8955L33.014 66.1128C34.3485 65.5671 35.8399 65.5671 37.1744 66.1128L51.3041 71.8955C54.8926 73.3646 58.7539 70.7592 58.8736 67.0062V62.7262L58.5932 62.7972L57.7297 51.172C57.6213 49.7366 58.0848 48.3161 59.0156 47.2134L68.8802 35.562C69.7886 34.493 70.196 33.2258 70.1848 31.981V27.7047L70.1923 27.7122Z" fill="url(#paint0_linear_455_981)"/>
  <path d="M39.7677 3.34751L47.8007 16.3334C48.5595 17.5594 49.7669 18.4379 51.1686 18.778L66.0011 22.4076C69.9634 23.3758 71.5259 28.1791 68.8868 31.2929L59.0222 42.948C58.0914 44.047 57.6279 45.4712 57.7363 46.9066L58.8652 62.1315C59.168 66.2022 55.0861 69.1702 51.3069 67.6264L37.1772 61.8437C35.8428 61.2979 34.3476 61.2979 33.0168 61.8437L18.8834 67.6264C15.1043 69.1702 11.0224 66.2022 11.3251 62.1315L12.4578 46.9066C12.5662 45.4712 12.1027 44.047 11.1719 42.948L1.30354 31.2929C-1.33176 28.1791 0.226988 23.3795 4.18928 22.4076L19.0217 18.778C20.4197 18.4379 21.6309 17.5594 22.3897 16.3334L30.4227 3.34751C32.572 -0.121369 37.6183 -0.121369 39.764 3.34751H39.7677Z" fill="#E2C5FF"/>
  <path d="M53.3931 67.3089C52.7801 67.3089 52.1708 67.1855 51.5839 66.9463L37.4542 61.1636C36.7029 60.8533 35.9104 60.7 35.0955 60.7C34.2806 60.7 33.4882 60.857 32.7368 61.1636L18.6072 66.9463C18.0203 67.1855 17.411 67.3089 16.798 67.3089C15.4859 67.3089 14.2113 66.7481 13.3029 65.7688C12.3983 64.7969 11.9572 63.526 12.0582 62.1878L13.1908 46.9591C13.3141 45.3219 12.7945 43.7257 11.7329 42.4735L1.86833 30.8221C-0.419333 28.1195 0.937565 23.9591 4.36906 23.1181L19.2015 19.4922C20.7976 19.1034 22.1508 18.1166 23.018 16.7223L31.0473 3.73272C31.922 2.31975 33.4359 1.4787 35.0955 1.4787C36.7552 1.4787 38.2691 2.32349 39.1438 3.73272L47.1805 16.7186C48.044 18.1166 49.3972 19.0997 50.9933 19.4884L65.8257 23.1143C69.2647 23.9554 70.6104 28.1195 68.3302 30.8184L58.4656 42.4698C57.404 43.7257 56.8844 45.3181 57.0078 46.9554L58.1404 62.184C58.2376 63.5222 57.7965 64.7932 56.8956 65.7651C55.9873 66.7444 54.7126 67.3051 53.3969 67.3051L53.3931 67.3089Z" fill="url(#paint1_linear_455_981)"/>
  <defs>
    <linearGradient id="paint0_linear_455_981" x1="35.096" y1="33.1459" x2="35.096" y2="72.3118" gradientUnits="userSpaceOnUse">
      <stop stop-color="#A46ED9"/>
      <stop offset="1" stop-color="#A46ED9"/>
    </linearGradient>
    <linearGradient id="paint1_linear_455_981" x1="35.0955" y1="19.2156" x2="35.0955" y2="57.8704" gradientUnits="userSpaceOnUse">
      <stop offset="0.18" stop-color="#E2C5FF"/>
      <stop offset="0.52" stop-color="#E2C5FF"/>
      <stop offset="1" stop-color="#B282E2" stop-opacity="0.980392"/>
    </linearGradient>
  </defs>
</svg>