<svg width="59" height="63" viewBox="0 0 59 63" fill="none" xmlns="http://www.w3.org/2000/svg">
<circle cx="29.5" cy="33.5" r="29.5" fill="#79DAB7"/>
<circle cx="29.5" cy="29.5" r="29.5" fill="#CCFFEB"/>
<path fill-rule="evenodd" clip-rule="evenodd" d="M20.6957 17C18.1023 17 16 19.1023 16 21.6957V36.9565C16 39.5499 18.1023 41.6522 20.6957 41.6522H39.3043C41.8977 41.6522 44 39.5499 44 36.9565V21.6957C44 19.1023 41.8977 17 39.3043 17H20.6957ZM34.3534 30.3518C35.1572 29.9042 35.1572 28.7479 34.3534 28.3004L27.8971 24.706C27.1147 24.2704 26.1522 24.8362 26.1522 25.7317V32.9205C26.1522 33.816 27.1147 34.3818 27.8971 33.9461L34.3534 30.3518Z" fill="#85E4C1"/>
</svg>
