<?xml version="1.0" encoding="UTF-8"?>
<svg id="Layer_2" data-name="Layer 2" xmlns="http://www.w3.org/2000/svg" viewBox="0 0 90.87 90.87">
  <defs>
    <style>
      .cls-1 {
        fill: #f9de4d;
      }
    </style>
  </defs>
  <g id="Layer_1-2" data-name="Layer 1">
    <g>
      <path class="cls-1" d="M90.87,18.63v53.61c0,10.28-8.37,18.63-18.63,18.63H18.63c-10.29,0-18.63-8.34-18.63-18.63V18.63C0,8.37,8.35,0,18.63,0h53.61c10.25,0,18.63,8.38,18.63,18.63Z"/>
      <path d="M71.36,57.64c-.2,6.95-7.05,11.94-20.34,14.84-1.76.38-5.17,1.13-8.78,1.13-4.26,0-8.8-1.03-11.26-4.9-4.66-7.31,2.63-17.91,4.98-20.99l7.81,5.95c-2.61,3.44-4.76,8.12-4.5,9.7.5.24,2.78,1.01,9.66-.49,11.4-2.49,12.62-5.51,12.62-5.54.05-1.58-6.03-9.24-36.62-17.85-4.56-1.28-5.3-4.49-5.41-5.8-.3-3.88,2.72-7.08,9.82-10.36,7.6-3.51,29.26-10.67,38.15-1.8,2.83,2.82,5.29,8.19.92,17.7l-8.92-4.1c.98-2.13,2.38-5.87.71-6.94-4.69-2.99-18.42.33-26.21,3.72,25.11,7.79,37.65,16.42,37.37,25.71Z"/>
    </g>
  </g>
</svg>